<svg width="76" height="76" viewBox="0 0 76 76" fill="none" xmlns="http://www.w3.org/2000/svg">
<g clip-path="url(#clip0_154_1308)">
<path d="M0.5 69.8663V6.40563C0.5 4.87542 1.10787 3.40789 2.18989 2.32588C3.27191 1.24386 4.73944 0.635986 6.26964 0.635986L69.7304 0.635986C71.2606 0.635986 72.7281 1.24386 73.8101 2.32588C74.8921 3.40789 75.5 4.87542 75.5 6.40563V69.8663C75.5 71.3966 74.8921 72.8641 73.8101 73.9461C72.7281 75.0281 71.2606 75.636 69.7304 75.636H52.4268V48.2878H56.5196C57.4531 48.2878 58.3483 47.917 59.0084 47.2569C59.6685 46.5968 60.0393 45.7016 60.0393 44.7681V40.3324C60.0407 39.8698 59.9506 39.4115 59.7743 38.9838C59.5979 38.5562 59.3387 38.1676 59.0116 37.8405C58.6845 37.5134 58.2959 37.2542 57.8682 37.0778C57.4406 36.9014 56.9822 36.8114 56.5196 36.8128H52.6518V31.386C52.6518 26.5378 54.8482 26.5378 57.0393 26.5378H59.8625C60.3269 26.5554 60.7897 26.4721 61.2188 26.2936C61.648 26.1151 62.0333 25.8456 62.3482 25.5038C62.6829 25.1831 62.9478 24.7969 63.1267 24.3692C63.3055 23.9415 63.3943 23.4816 63.3875 23.0181V18.7538C63.4164 17.8045 63.0678 16.8824 62.4182 16.1895C61.7685 15.4967 60.8707 15.0896 59.9214 15.0574H53.2893C51.3532 14.9841 49.4243 15.332 47.6359 16.0772C45.8475 16.8224 44.2422 17.947 42.931 19.3733C41.6198 20.7997 40.6339 22.4937 40.0415 24.3384C39.4491 26.183 39.2644 28.1343 39.5 30.0574V36.8074H35.8036C35.3369 36.8003 34.8734 36.8861 34.4402 37.0598C34.007 37.2335 33.6126 37.4916 33.2801 37.8192C32.9476 38.1467 32.6835 38.5371 32.5033 38.9677C32.3231 39.3982 32.2303 39.8603 32.2304 40.3271V44.7735C32.231 45.2402 32.3245 45.7022 32.5053 46.1325C32.6862 46.5628 32.9509 46.9528 33.2839 47.2798C33.6169 47.6069 34.0117 47.8644 34.4452 48.0375C34.8787 48.2105 35.3422 48.2956 35.8089 48.2878H39.5V75.636H6.26964C4.73944 75.636 3.27191 75.0281 2.18989 73.9461C1.10787 72.8641 0.5 71.3966 0.5 69.8663Z" fill="#375435"/>
</g>
<defs>
<clipPath id="clip0_154_1308">
<rect width="75" height="75" fill="white" transform="translate(0.5 0.635986)"/>
</clipPath>
</defs>
</svg>
