<svg width="76" height="76" viewBox="0 0 76 76" fill="none" xmlns="http://www.w3.org/2000/svg">
<path d="M41.2123 6.88599C44.7279 6.89536 46.5123 6.91411 48.0529 6.95786L48.6592 6.97974C49.3592 7.00474 50.0498 7.03599 50.8842 7.07349C54.2092 7.22974 56.4779 7.75474 58.4686 8.52661C60.5311 9.32036 62.2686 10.3954 64.0061 12.1297C65.5957 13.6914 66.8254 15.5812 67.6092 17.6672C68.3811 19.6579 68.9061 21.9266 69.0623 25.2547C69.0998 26.086 69.1311 26.7766 69.1561 27.4797L69.1748 28.086C69.2217 29.6235 69.2404 31.4079 69.2467 34.9235L69.2498 37.2547V41.3485C69.2574 43.6279 69.2335 45.9073 69.1779 48.186L69.1592 48.7922C69.1342 49.4954 69.1029 50.186 69.0654 51.0172C68.9092 54.3454 68.3779 56.611 67.6092 58.6047C66.8254 60.6908 65.5957 62.5806 64.0061 64.1422C62.4444 65.7319 60.5546 66.9616 58.4686 67.7454C56.4779 68.5172 54.2092 69.0422 50.8842 69.1985L48.6592 69.2922L48.0529 69.311C46.5123 69.3547 44.7279 69.3766 41.2123 69.3829L38.8811 69.386H34.7904C32.51 69.394 30.2296 69.3701 27.9498 69.3141L27.3436 69.2954C26.6017 69.2673 25.8601 69.235 25.1186 69.1985C21.7936 69.0422 19.5248 68.5172 17.5311 67.7454C15.4462 66.9612 13.5575 65.7315 11.9967 64.1422C10.4059 62.5809 9.17516 60.691 8.39045 58.6047C7.61857 56.6141 7.09357 54.3454 6.93732 51.0172L6.84357 48.7922L6.82795 48.186C6.77034 45.9073 6.7443 43.6279 6.74982 41.3485V34.9235C6.74117 32.6441 6.76409 30.3647 6.81857 28.086L6.84045 27.4797C6.86545 26.7766 6.8967 26.086 6.9342 25.2547C7.09045 21.9266 7.61545 19.661 8.38732 17.6672C9.17387 15.5804 10.4068 13.6905 11.9998 12.1297C13.5597 10.5408 15.4473 9.31122 17.5311 8.52661C19.5248 7.75474 21.7904 7.22974 25.1186 7.07349C25.9498 7.03599 26.6436 7.00474 27.3436 6.97974L27.9498 6.96099C30.2286 6.90546 32.5079 6.8815 34.7873 6.88911L41.2123 6.88599ZM37.9998 22.511C33.8558 22.511 29.8815 24.1572 26.9513 27.0874C24.021 30.0177 22.3748 33.992 22.3748 38.136C22.3748 42.28 24.021 46.2543 26.9513 49.1845C29.8815 52.1148 33.8558 53.761 37.9998 53.761C42.1438 53.761 46.1181 52.1148 49.0484 49.1845C51.9786 46.2543 53.6248 42.28 53.6248 38.136C53.6248 33.992 51.9786 30.0177 49.0484 27.0874C46.1181 24.1572 42.1438 22.511 37.9998 22.511ZM37.9998 28.761C39.231 28.7608 40.4501 29.0031 41.5876 29.474C42.7251 29.945 43.7587 30.6354 44.6294 31.5058C45.5001 32.3762 46.1908 33.4095 46.6622 34.5469C47.1335 35.6842 47.3762 36.9033 47.3764 38.1344C47.3766 39.3656 47.1343 40.5847 46.6634 41.7222C46.1924 42.8597 45.502 43.8933 44.6316 44.764C43.7612 45.6347 42.7278 46.3254 41.5905 46.7968C40.4531 47.2681 39.2341 47.5108 38.0029 47.511C35.5165 47.511 33.132 46.5233 31.3738 44.7651C29.6157 43.007 28.628 40.6224 28.628 38.136C28.628 35.6496 29.6157 33.265 31.3738 31.5069C33.132 29.7487 35.5165 28.761 38.0029 28.761M54.4092 17.8235C53.3732 17.8235 52.3796 18.235 51.6471 18.9676C50.9145 19.7002 50.5029 20.6937 50.5029 21.7297C50.5029 22.7657 50.9145 23.7593 51.6471 24.4919C52.3796 25.2244 53.3732 25.636 54.4092 25.636C55.4452 25.636 56.4388 25.2244 57.1713 24.4919C57.9039 23.7593 58.3154 22.7657 58.3154 21.7297C58.3154 20.6937 57.9039 19.7002 57.1713 18.9676C56.4388 18.235 55.4452 17.8235 54.4092 17.8235Z" fill="#375435"/>
</svg>
