<svg width="76" height="76" viewBox="0 0 76 76" fill="none" xmlns="http://www.w3.org/2000/svg">
<g clip-path="url(#clip0_154_1318)">
<path d="M50.3159 56.7704C51.0346 50.8985 47.2534 47.1547 37.269 43.9672C32.4315 42.3172 30.1534 40.1547 30.2065 37.1829C30.4096 33.8829 33.4815 31.4797 37.5565 31.4016C40.7657 31.4362 43.8956 32.4025 46.5659 34.1829C46.9284 34.4079 47.1815 34.3704 47.3877 34.0579C47.669 33.6079 48.3721 32.5172 48.6065 32.1204C48.7659 31.8704 48.7971 31.5391 48.394 31.2454C47.8159 30.8172 46.194 29.9485 45.3221 29.5829C42.839 28.5319 40.1716 27.9859 37.4752 27.9766C31.5065 28.0016 26.8096 31.7735 26.4127 36.8079C26.1586 40.4454 27.9607 43.3902 31.819 45.6422C32.6409 46.1172 37.069 47.8797 38.8315 48.4297C44.3752 50.1547 47.2534 53.2485 46.5752 56.8579C45.9596 60.1297 42.5159 62.2454 37.769 62.3079C34.0096 62.1641 30.6221 60.6297 27.9971 58.5891L27.5565 58.2454C27.2315 57.9954 26.8752 58.011 26.6596 58.3391C26.5034 58.5797 25.4846 60.0485 25.2284 60.4329C24.9877 60.7704 25.119 60.9579 25.369 61.1641C26.4627 62.0797 27.9221 63.0797 28.9127 63.586C31.6567 64.9842 34.6753 65.76 37.7534 65.8579C39.9694 65.9632 42.1819 65.5858 44.2377 64.7516C47.6596 63.2985 49.8721 60.3954 50.3159 56.7704ZM38.0002 5.01411C31.5377 5.01411 26.269 11.1079 26.0221 18.7329H49.9752C49.7221 11.1047 44.4565 5.01099 38.0002 5.01099M62.5346 75.6297L62.2846 75.6329L12.9596 75.6266C9.60336 75.5016 7.13774 72.7829 6.80024 69.4047L6.76899 68.7954L4.55962 20.2766C4.54513 20.0817 4.57055 19.8859 4.63432 19.7011C4.69808 19.5164 4.79885 19.3466 4.93047 19.2021C5.06209 19.0576 5.2218 18.9414 5.39982 18.8608C5.57784 18.7801 5.77045 18.7366 5.96587 18.7329H21.5127C21.8909 8.66098 29.1252 0.635986 38.0002 0.635986C46.8752 0.635986 54.1034 8.66411 54.4846 18.7297H70.0096C70.2041 18.7303 70.3964 18.7704 70.5749 18.8475C70.7534 18.9245 70.9145 19.037 71.0483 19.1781C71.1821 19.3192 71.2858 19.486 71.3533 19.6684C71.4208 19.8507 71.4506 20.0449 71.4409 20.2391L69.0252 68.9516L69.0034 69.361C68.7096 72.7797 65.944 75.5391 62.5346 75.6297Z" fill="#375435"/>
</g>
<defs>
<clipPath id="clip0_154_1318">
<rect width="75" height="75" fill="white" transform="translate(0.5 0.635986)"/>
</clipPath>
</defs>
</svg>
