<svg width="76" height="76" viewBox="0 0 76 76" fill="none" xmlns="http://www.w3.org/2000/svg">
<path d="M59.4281 10.011H16.5719C14.7963 10.0126 13.0938 10.7187 11.8383 11.9743C10.5827 13.2298 9.87665 14.9322 9.875 16.7079V59.5641C9.875 63.261 12.8781 66.261 16.5719 66.261H59.4281C61.2037 66.2593 62.9062 65.5532 64.1617 64.2977C65.4172 63.0421 66.1233 61.3397 66.125 59.5641V16.7079C66.1233 14.9322 65.4172 13.2298 64.1617 11.9743C62.9062 10.7187 61.2037 10.0126 59.4281 10.011ZM54.0781 34.5516C52.107 34.743 50.1237 34.3391 48.3844 33.3922C46.9173 32.6013 45.6712 31.4561 44.7594 30.061V45.511C44.7594 47.7694 44.0897 49.9771 42.835 51.8549C41.5803 53.7327 39.7969 55.1963 37.7104 56.0605C35.6239 56.9248 33.328 57.1509 31.1129 56.7103C28.8979 56.2697 26.8633 55.1822 25.2663 53.5853C23.6694 51.9883 22.5819 49.9537 22.1413 47.7387C21.7007 45.5237 21.9268 43.2277 22.7911 41.1412C23.6553 39.0547 25.1189 37.2714 26.9967 36.0166C28.8745 34.7619 31.0822 34.0922 33.3406 34.0922C33.5781 34.0922 33.8094 34.1141 34.0438 34.1266V39.7547C33.8094 39.7266 33.5812 39.6829 33.3406 39.6829C31.7949 39.6829 30.3125 40.2969 29.2195 41.3899C28.1265 42.4829 27.5125 43.9653 27.5125 45.511C27.5125 47.0567 28.1265 48.5391 29.2195 49.6321C30.3125 50.7251 31.7949 51.3391 33.3406 51.3391C36.5594 51.3391 39.4031 48.8047 39.4031 45.586L39.4594 19.3422H44.8438C45.0902 21.6811 46.1505 23.859 47.8396 25.4955C49.5286 27.1319 51.7389 28.1229 54.0844 28.2954V34.5516" fill="#375435"/>
</svg>
