<svg width="76" height="76" viewBox="0 0 76 76" fill="none" xmlns="http://www.w3.org/2000/svg">
<path fill-rule="evenodd" clip-rule="evenodd" d="M38 6.88599C20.7406 6.88599 6.75 20.8766 6.75 38.136C6.75 44.0422 8.39062 49.5735 11.2438 54.286L8.45625 63.761C8.2962 64.305 8.28567 64.8821 8.42576 65.4316C8.56586 65.981 8.8514 66.4826 9.25237 66.8836C9.65335 67.2846 10.1549 67.5701 10.7044 67.7102C11.2539 67.8503 11.831 67.8398 12.375 67.6797L21.85 64.8922C26.7211 67.8389 32.307 69.3932 38 69.386C55.2594 69.386 69.25 55.3954 69.25 38.136C69.25 20.8766 55.2594 6.88599 38 6.88599ZM30.9312 45.2079C37.2531 51.5266 43.2875 52.361 45.4187 52.4391C48.6594 52.5579 51.8156 50.0829 53.0437 47.211C53.1975 46.8534 53.2531 46.4614 53.2047 46.0752C53.1564 45.689 53.0059 45.3227 52.7687 45.0141C51.0562 42.8266 48.7406 41.2547 46.4781 39.6922C46.006 39.3648 45.4253 39.2334 44.8582 39.3254C44.2911 39.4175 43.7818 39.726 43.4375 40.186L41.5625 43.0454C41.4634 43.1985 41.3098 43.3082 41.1328 43.3523C40.9559 43.3964 40.7687 43.3716 40.6094 43.2829C39.3375 42.5547 37.4844 41.3172 36.1531 39.986C34.8219 38.6547 33.6594 36.886 33.0063 35.6954C32.9272 35.5437 32.9049 35.3688 32.9433 35.2021C32.9817 35.0354 33.0782 34.8879 33.2156 34.786L36.1031 32.6422C36.5164 32.2847 36.7832 31.7873 36.8524 31.2452C36.9216 30.7031 36.7883 30.1546 36.4781 29.7047C35.0781 27.6547 33.4469 25.0485 31.0813 23.3204C30.7753 23.1005 30.4178 22.9635 30.0433 22.9224C29.6688 22.8813 29.2901 22.9377 28.9438 23.086C26.0688 24.3172 23.5812 27.4735 23.7 30.7204C23.7781 32.8516 24.6125 38.886 30.9312 45.2079Z" fill="#375435"/>
</svg>
